# xmcd
#
# Track frame offsets: 
#        150
#        13734
#        31562
#        46907
#        60384
#        73733
#        89829
#        106313
#        119154
#        134749
#        149751
#        162794
#        179656
#
# Disc length: 2619 seconds
#
# Revision: 0
# Processed by: cddbd v1.5.2PL0 Copyright (c) Steve Scherf et al.
# Submitted via: ExactAudioCopyFreeDBPlugin 1.0
#
DISCID=c40a390d
DTITLE=David Leask - Underneath
DYEAR=2013
DGENRE=Country
TTITLE0=Words
TTITLE1=Underneath
TTITLE2=Breathing
TTITLE3=Ready To Buy
TTITLE4=Freedom By The Barrel
TTITLE5=You've Got My World
TTITLE6=Stronger back
TTITLE7=Photosynthesis
TTITLE8=One Second Look
TTITLE9=Highway Home
TTITLE10=Burdens and Blessings
TTITLE11=All My Love
TTITLE12=This Time 'Round
EXTD=
EXTT0=
EXTT1=
EXTT2=
EXTT3=
EXTT4=
EXTT5=
EXTT6=
EXTT7=
EXTT8=
EXTT9=
EXTT10=
EXTT11=
EXTT12=
PLAYORDER=
